<svg width="291" height="291" xmlns="http://www.w3.org/2000/svg" xmlns:xlink="http://www.w3.org/1999/xlink" overflow="hidden"><defs><clipPath id="clip0"><rect x="1111" y="-460" width="291" height="291"/></clipPath><linearGradient x1="1111.49" y1="-459.496" x2="1400.49" y2="-169.498" gradientUnits="userSpaceOnUse" spreadMethod="reflect" id="fill1"><stop offset="0" stop-color="#181818"/><stop offset="0.13" stop-color="#181818"/><stop offset="0.37" stop-color="#181818"/><stop offset="1" stop-color="#FFFFFF"/></linearGradient></defs><g clip-path="url(#clip0)" transform="translate(-1111 460)"><path d="M1253.61-172.149C1248.42-174.887 1245.97-180.384 1245.94-189.404 1245.88-209.518 1258.24-229.052 1276.57-237.789L1284.49-241.562 1331.83-241.85C1373.08-242.103 1379.26-241.948 1379.76-240.644 1380.54-238.598 1371.74-226.118 1362.5-216.187 1349.88-202.622 1330.54-188.55 1315.51-181.99 1291.29-171.427 1263.4-166.993 1253.61-172.149ZM1216.69-175.087C1214.86-176.153 1211.47-184.391 1209.79-191.866 1209.2-194.44 1208.74-201.881 1208.75-208.395 1208.8-233.041 1217.36-252.768 1235.54-270.133 1244.12-278.322 1249.84-282.239 1260.27-287.067 1276.58-294.605 1274.69-294.424 1339.84-294.832 1394.26-295.172 1398.24-295.082 1398.86-293.482 1399.6-291.55 1397.84-282.118 1395.34-274.575L1393.67-269.573 1339.58-269.014C1278.8-268.386 1280.63-268.591 1264.45-260.617 1249.29-253.143 1236.96-240.19 1229.49-223.899 1224.04-212.009 1222.53-204.395 1222.61-189.28 1222.68-177.386 1222.5-175.907 1220.85-175.027 1218.66-173.854 1218.81-173.854 1216.69-175.087ZM1174.28-194.992C1164.65-201.476 1153.88-210.973 1146.57-219.408 1138.66-228.546 1131.51-238.905 1132.03-240.474 1132.28-241.218 1141.18-241.649 1160-241.831 1191.52-242.133 1189.85-242.659 1187.11-233.283 1185.85-228.95 1185.42-223.188 1185.34-209.555L1185.25-191.548 1182.75-191.253C1181.15-191.064 1178.13-192.395 1174.28-194.992ZM1119.75-269.252C1116.93-270.296 1111.57-289.702 1113.05-293.539 1113.57-294.9 1120.1-295.082 1169.26-295.082 1215.24-295.082 1224.89-294.847 1224.89-293.732 1224.89-292.991 1224.02-291.978 1222.95-291.482 1219.94-290.084 1212.18-282.435 1206.68-275.449L1201.7-269.116 1161.64-268.844C1139.61-268.696 1120.76-268.878 1119.75-269.252ZM1111.72-322.56C1110.77-323.701 1110.75-325.932 1111.63-332.495 1112.25-337.149 1113.24-342.34 1113.83-344.026L1114.9-347.096 1171.32-347.096C1231.96-347.096 1238.33-347.489 1251.69-352.045 1263.19-355.965 1270.23-360.366 1278.98-369.103 1299.01-389.094 1306.25-415.349 1298.79-441.003 1296.74-448.056 1296.72-448.443 1298.43-449.689 1301.55-451.971 1304.6-449.501 1308.94-441.181 1320.51-418.971 1321.86-393.445 1312.75-369.254 1305.13-349.039 1289.71-333.459 1270.39-326.457 1256.31-321.353 1251.85-321.089 1179.8-321.089 1122.19-321.089 1112.77-321.293 1111.72-322.56ZM1316.71-321.754C1315.25-323.21 1316.25-325.626 1320.92-331.97 1323.6-335.614 1326.98-340.506 1328.44-342.847L1331.09-347.096 1364.04-347.096 1396.98-347.096 1398.05-344.026C1398.64-342.336 1399.66-337.176 1400.3-332.552 1401.24-325.852 1401.22-323.837 1400.21-322.62 1399.1-321.289 1393.54-321.089 1358.16-321.089 1335.73-321.089 1317.08-321.387 1316.71-321.754ZM1125.04-374.71C1123.35-379.118 1138.51-401.825 1152.65-416.065 1180.52-444.126 1216.12-460.146 1247.9-458.933 1256.23-458.615 1259.31-458.076 1262.6-456.358 1267.9-453.594 1272.41-448.128 1275.19-441.124 1278.13-433.7 1278.34-417.249 1275.59-409.114 1269.59-391.371 1256.08-378.71 1238.82-374.646 1233.52-373.398 1223.09-373.13 1179.03-373.118 1130.93-373.103 1125.6-373.262 1125.04-374.71ZM1341.7-374.653C1341.37-375.504 1341.57-380.57 1342.13-385.908 1343.25-396.527 1342.85-404.027 1340.43-417.337 1338.74-426.639 1339.01-429.121 1341.71-429.121 1346.23-429.121 1366.66-409.285 1375.76-396.06 1382.45-386.332 1387.52-376.476 1386.79-374.597 1385.92-372.313 1342.58-372.366 1341.7-374.653Z" fill="url(#fill1)" fill-rule="evenodd"/></g></svg>